<mxfile host="app.diagrams.net" modified="2021-11-21T08:49:19.384Z" agent="5.0 (X11; Linux x86_64) AppleWebKit/537.36 (KHTML, like Gecko) Chrome/95.0.4638.69 Safari/537.36" etag="DxUa5pttNq_1ZrzR7JzZ" version="14.8.1" type="github">
  <diagram id="mjgqmSHZGCYBxVDJmJig" name="Page-1">
    <mxGraphModel dx="1447" dy="833" grid="1" gridSize="10" guides="1" tooltips="1" connect="1" arrows="1" fold="1" page="1" pageScale="2" pageWidth="827" pageHeight="1169" math="0" shadow="0">
      <root>
        <mxCell id="0" />
        <mxCell id="1" parent="0" />
        <mxCell id="FAwiAq0qkd5cn3caJAeM-73" value="" style="rounded=0;whiteSpace=wrap;html=1;fontSize=25;align=right;fontStyle=0" parent="1" vertex="1">
          <mxGeometry x="210" y="803" width="149" height="147" as="geometry" />
        </mxCell>
        <mxCell id="16TBc1RyOengqVH6E9E0-25" value="" style="rounded=0;whiteSpace=wrap;html=1;fontSize=25;fontStyle=0" parent="1" vertex="1">
          <mxGeometry x="381.18" y="670" width="340" height="313" as="geometry" />
        </mxCell>
        <mxCell id="16TBc1RyOengqVH6E9E0-18" style="rounded=0;orthogonalLoop=1;jettySize=auto;html=1;exitX=0.5;exitY=1;exitDx=0;exitDy=0;entryX=0.228;entryY=0;entryDx=0;entryDy=0;entryPerimeter=0;fontSize=25;startArrow=blockThin;startFill=1;endArrow=classicThin;endFill=1;strokeWidth=1;fontStyle=0" parent="1" source="16TBc1RyOengqVH6E9E0-1" target="16TBc1RyOengqVH6E9E0-12" edge="1">
          <mxGeometry relative="1" as="geometry" />
        </mxCell>
        <mxCell id="16TBc1RyOengqVH6E9E0-1" value="" style="whiteSpace=wrap;html=1;aspect=fixed;fontStyle=0;fontSize=25;" parent="1" vertex="1">
          <mxGeometry x="403.18" y="683" width="128.82" height="128.82" as="geometry" />
        </mxCell>
        <mxCell id="16TBc1RyOengqVH6E9E0-4" value="L2" style="rounded=0;whiteSpace=wrap;html=1;fontSize=25;fillColor=#ffe6cc;strokeColor=#d79b00;fontStyle=0" parent="1" vertex="1">
          <mxGeometry x="411.18" y="763" width="110" height="30" as="geometry" />
        </mxCell>
        <mxCell id="16TBc1RyOengqVH6E9E0-6" value="&lt;font style=&quot;font-size: 25px;&quot;&gt;L1 D&lt;/font&gt;" style="rounded=0;whiteSpace=wrap;html=1;fontSize=25;fillColor=#ffe6cc;strokeColor=#d79b00;fontStyle=0" parent="1" vertex="1">
          <mxGeometry x="469.18" y="713" width="58.82" height="30" as="geometry" />
        </mxCell>
        <mxCell id="16TBc1RyOengqVH6E9E0-7" value="&lt;font style=&quot;font-size: 25px;&quot;&gt;L1 I&lt;/font&gt;" style="rounded=0;whiteSpace=wrap;html=1;fontSize=25;fillColor=#ffe6cc;strokeColor=#d79b00;fontStyle=0" parent="1" vertex="1">
          <mxGeometry x="408.18" y="713" width="50" height="30" as="geometry" />
        </mxCell>
        <mxCell id="16TBc1RyOengqVH6E9E0-8" value="" style="whiteSpace=wrap;html=1;aspect=fixed;fontStyle=0;fontSize=25;" parent="1" vertex="1">
          <mxGeometry x="561.1800000000001" y="683" width="130" height="130" as="geometry" />
        </mxCell>
        <mxCell id="16TBc1RyOengqVH6E9E0-9" value="L2" style="rounded=0;whiteSpace=wrap;html=1;fontSize=25;fillColor=#ffe6cc;strokeColor=#d79b00;fontStyle=0" parent="1" vertex="1">
          <mxGeometry x="571.1800000000001" y="763" width="110" height="30" as="geometry" />
        </mxCell>
        <mxCell id="16TBc1RyOengqVH6E9E0-10" value="&lt;font style=&quot;font-size: 25px;&quot;&gt;L1 D&lt;/font&gt;" style="rounded=0;whiteSpace=wrap;html=1;fontSize=25;fillColor=#ffe6cc;strokeColor=#d79b00;fontStyle=0" parent="1" vertex="1">
          <mxGeometry x="627.18" y="713" width="58.82" height="30" as="geometry" />
        </mxCell>
        <mxCell id="16TBc1RyOengqVH6E9E0-11" value="&lt;font style=&quot;font-size: 25px;&quot;&gt;L1 I&lt;/font&gt;" style="rounded=0;whiteSpace=wrap;html=1;fontSize=25;fillColor=#ffe6cc;strokeColor=#d79b00;fontStyle=0" parent="1" vertex="1">
          <mxGeometry x="567.1800000000001" y="713" width="50" height="30" as="geometry" />
        </mxCell>
        <mxCell id="16TBc1RyOengqVH6E9E0-12" value="LLC" style="rounded=0;whiteSpace=wrap;html=1;fontSize=25;fillColor=#ffe6cc;strokeColor=#d79b00;fontStyle=0" parent="1" vertex="1">
          <mxGeometry x="401.18" y="843" width="290" height="50" as="geometry" />
        </mxCell>
        <mxCell id="16TBc1RyOengqVH6E9E0-13" value="NVM" style="rounded=0;whiteSpace=wrap;html=1;fontSize=25;fillColor=#dae8fc;strokeColor=#6c8ebf;fontStyle=0" parent="1" vertex="1">
          <mxGeometry x="381.18" y="1008" width="340" height="80" as="geometry" />
        </mxCell>
        <mxCell id="16TBc1RyOengqVH6E9E0-23" style="edgeStyle=none;rounded=0;orthogonalLoop=1;jettySize=auto;html=1;exitX=0.5;exitY=1;exitDx=0;exitDy=0;fontSize=25;startArrow=blockThin;startFill=1;endArrow=classicThin;endFill=1;strokeWidth=1;fontStyle=0" parent="1" source="16TBc1RyOengqVH6E9E0-14" edge="1">
          <mxGeometry relative="1" as="geometry">
            <mxPoint x="546.1800000000001" y="1013" as="targetPoint" />
          </mxGeometry>
        </mxCell>
        <mxCell id="16TBc1RyOengqVH6E9E0-14" value="MC" style="rounded=0;whiteSpace=wrap;html=1;fontSize=25;fillColor=#dae8fc;strokeColor=#6c8ebf;fontStyle=0" parent="1" vertex="1">
          <mxGeometry x="401.18" y="923" width="290" height="40" as="geometry" />
        </mxCell>
        <mxCell id="16TBc1RyOengqVH6E9E0-16" value="WPQ" style="rounded=0;whiteSpace=wrap;html=1;fontSize=25;fillColor=#f8cecc;strokeColor=#b85450;fontStyle=0" parent="1" vertex="1">
          <mxGeometry x="591.1800000000001" y="933" width="90" height="20" as="geometry" />
        </mxCell>
        <mxCell id="16TBc1RyOengqVH6E9E0-19" style="rounded=0;orthogonalLoop=1;jettySize=auto;html=1;entryX=0.228;entryY=0;entryDx=0;entryDy=0;entryPerimeter=0;fontSize=25;startArrow=blockThin;startFill=1;endArrow=classicThin;endFill=1;strokeWidth=1;fontStyle=0;exitX=0.5;exitY=1;exitDx=0;exitDy=0;" parent="1" source="16TBc1RyOengqVH6E9E0-8" edge="1">
          <mxGeometry relative="1" as="geometry">
            <mxPoint x="627" y="820" as="sourcePoint" />
            <mxPoint x="626.7399999999999" y="843" as="targetPoint" />
          </mxGeometry>
        </mxCell>
        <mxCell id="16TBc1RyOengqVH6E9E0-20" style="rounded=0;orthogonalLoop=1;jettySize=auto;html=1;exitX=0.5;exitY=1;exitDx=0;exitDy=0;entryX=0.228;entryY=0;entryDx=0;entryDy=0;entryPerimeter=0;fontSize=25;startArrow=blockThin;startFill=1;endArrow=classicThin;endFill=1;strokeWidth=1;fontStyle=0" parent="1" edge="1">
          <mxGeometry relative="1" as="geometry">
            <mxPoint x="545.1800000000001" y="893" as="sourcePoint" />
            <mxPoint x="546.3" y="923" as="targetPoint" />
          </mxGeometry>
        </mxCell>
        <mxCell id="FAwiAq0qkd5cn3caJAeM-68" value="PBarrier( )" style="text;html=1;strokeColor=none;fillColor=none;align=center;verticalAlign=middle;whiteSpace=wrap;rounded=0;fontSize=25;fontStyle=0" parent="1" vertex="1">
          <mxGeometry x="197" y="845" width="155" height="20" as="geometry" />
        </mxCell>
        <mxCell id="FAwiAq0qkd5cn3caJAeM-69" value="Store (A,1)" style="text;html=1;strokeColor=none;fillColor=none;align=center;verticalAlign=middle;whiteSpace=wrap;rounded=0;fontSize=25;fontStyle=0" parent="1" vertex="1">
          <mxGeometry x="217" y="813" width="125" height="20" as="geometry" />
        </mxCell>
        <mxCell id="FAwiAq0qkd5cn3caJAeM-70" value="Store (B,1)" style="text;html=1;strokeColor=none;fillColor=none;align=center;verticalAlign=middle;whiteSpace=wrap;rounded=0;fontSize=25;fontStyle=0" parent="1" vertex="1">
          <mxGeometry x="210" y="876" width="130" height="20" as="geometry" />
        </mxCell>
        <mxCell id="FAwiAq0qkd5cn3caJAeM-107" value="1" style="rounded=0;whiteSpace=wrap;html=1;fontSize=25;align=center;fontStyle=0" parent="1" vertex="1">
          <mxGeometry x="441.18" y="1038" width="40" height="20" as="geometry" />
        </mxCell>
        <mxCell id="FAwiAq0qkd5cn3caJAeM-108" value="A" style="text;html=1;strokeColor=none;fillColor=none;align=center;verticalAlign=middle;whiteSpace=wrap;rounded=0;fontSize=25;fontStyle=0" parent="1" vertex="1">
          <mxGeometry x="411.18" y="1038" width="40" height="20" as="geometry" />
        </mxCell>
        <mxCell id="FAwiAq0qkd5cn3caJAeM-109" value="1" style="rounded=0;whiteSpace=wrap;html=1;fontSize=25;align=center;fontStyle=0" parent="1" vertex="1">
          <mxGeometry x="450.18" y="858" width="40" height="20" as="geometry" />
        </mxCell>
        <mxCell id="FAwiAq0qkd5cn3caJAeM-110" value="B" style="text;html=1;strokeColor=none;fillColor=none;align=center;verticalAlign=middle;whiteSpace=wrap;rounded=0;fontSize=25;fontStyle=0" parent="1" vertex="1">
          <mxGeometry x="420.18" y="858" width="40" height="20" as="geometry" />
        </mxCell>
        <mxCell id="FAwiAq0qkd5cn3caJAeM-140" value=".&lt;br style=&quot;font-size: 25px;&quot;&gt;." style="text;html=1;strokeColor=none;fillColor=none;align=center;verticalAlign=middle;whiteSpace=wrap;rounded=0;fontSize=25;fontStyle=0" parent="1" vertex="1">
          <mxGeometry x="218" y="903" width="90" height="20" as="geometry" />
        </mxCell>
        <mxCell id="CRLOc1WB8V-iHWx_uGIP-17" value="" style="html=1;shadow=0;dashed=0;align=center;verticalAlign=middle;shape=mxgraph.arrows2.arrow;dy=0.67;dx=20;notch=0;fontSize=25;fontColor=#FFFFFF;fillColor=#0000FF;fontStyle=0" parent="1" vertex="1">
          <mxGeometry x="330" y="895" width="45" height="10" as="geometry" />
        </mxCell>
        <mxCell id="rw0pJkleUwbmweoXINBP-5" value="" style="rounded=0;whiteSpace=wrap;html=1;fontSize=25;strokeWidth=2;strokeColor=#666666;fontColor=#333333;fontStyle=0;fillColor=none;dashed=1;" parent="1" vertex="1">
          <mxGeometry x="379.18" y="902" width="385" height="210" as="geometry" />
        </mxCell>
        <mxCell id="rw0pJkleUwbmweoXINBP-6" value="persistent domain" style="text;html=1;strokeColor=none;fillColor=none;align=center;verticalAlign=middle;whiteSpace=wrap;rounded=0;fontSize=25;rotation=270;fontStyle=0;fontFamily=Helvetica;" parent="1" vertex="1">
          <mxGeometry x="624.05" y="993.5" width="226.63" height="20" as="geometry" />
        </mxCell>
      </root>
    </mxGraphModel>
  </diagram>
</mxfile>
